<?xml version="1.0" encoding="UTF-8"?>
<svg id="Layer_1" data-name="Layer 1" xmlns="http://www.w3.org/2000/svg" viewBox="0 0 1080 1080">
  <path d="M115.82,225.9l216.55-.16-63.2,367.13c-16.77,97.39,157.42,122.29,178.44,0l63.25-367.26,216.55-.16-62.89,365.32c-28.5,165.58-133.5,276.77-319.25,276.95-157.12.15-329.64-59.86-273.01-388.83l43.55-252.99Z"/>
  <path d="M840.65,650.93c-24.56,28.26-36.84,63.87-36.84,106.85,0,32.59,10.27,59.01,30.83,79.29,20.55,20.28,47.37,30.42,80.47,30.42,37.96,0,69.23-13.86,93.79-41.6,24.56-27.73,36.84-62.91,36.84-105.55,0-33.62-10.37-60.65-31.09-81.11-20.73-20.45-47.81-30.68-81.25-30.68-37.28,0-68.19,14.13-92.75,42.37"/>
</svg>