<?xml version="1.0" encoding="UTF-8"?>
<svg id="Layer_1" data-name="Layer 1" xmlns="http://www.w3.org/2000/svg" viewBox="0 0 1080 1080">
  <path d="M51.04,482.68l74.01-.05-21.6,125.48c-5.73,33.29,53.8,41.8,60.99,0l21.62-125.53,74.01-.05-21.5,124.86c-9.74,56.59-45.63,94.6-109.12,94.66-53.7.05-112.67-20.46-93.31-132.9l14.89-86.47Z"/>
  <path d="M260.06,701.97l37.78-219.47,106.09-.07c6.64,0,29.63,1.84,35.82,3.69l-11.51,66.86-8.89-1.8c-10.27-2.07-20.71-3.12-31.18-3.11h0c-15.95.01-29.58,11.5-32.29,27.23l-21.8,126.62-74.01.05Z"/>
  <path d="M887.62,486.09v-.03c-1.44-.44-3.8-.86-6.66-1.27-.05,0-.1-.02-.15-.03-13.24-2.21-27.71-2.65-42.24-2.65-2.62,0-5.19.07-7.71.2l-84.91-.2-15.57,90.08c-.34,1.62-.64,3.26-.93,4.92l-18.91,109.86-2.59,14.94h0v.06s74.01-.05,74.01-.05l21.62-125.53c.83-4.79,2.34-8.92,4.37-12.43.16-.28.31-.55.5-.82,1.78-2.79,3.98-5.28,6.49-7.4,1.79-1.51,3.75-2.83,5.83-3.94.15-.08.3-.15.44-.22,19.59-9.58,47.36,1.58,43.36,24.8l-21.6,125.49,74.01-.05,18.88-116.43c11.68-67.82-12.75-91.32-48.23-99.3Z"/>
  <path d="M588.91,482.29c-15.97,0-39.05.03-39.05.03l17.97-104.37-74.01.05-55.85,323.97s108.11-.21,140.84-.21c29.28-.04,92.54-15.26,108.06-105.38,12.74-74-39.39-114.08-97.95-114.08ZM600.99,621.96c-8.39,9.48-19.08,14.22-32.06,14.22-11.31,0-20.48-3.47-27.5-10.4-7.03-6.93-10.53-15.97-10.53-27.1,0-14.69,4.2-26.86,12.59-36.51,8.39-9.66,18.96-14.49,31.7-14.49,11.43,0,20.69,3.5,27.77,10.48,7.08,6.99,10.62,16.24,10.62,27.72,0,14.57-4.2,26.6-12.59,36.08Z"/>
  <line x1="440.39" y1="482.4" x2="439.54" y2="487.34"/>
  <path d="M977.51,627.95c-8.39,9.66-12.59,21.83-12.59,36.52,0,11.14,3.51,20.17,10.54,27.1,7.02,6.93,16.19,10.4,27.5,10.4,12.98,0,23.66-4.74,32.06-14.22,8.39-9.48,12.59-21.5,12.59-36.08,0-11.49-3.54-20.73-10.63-27.72-7.09-6.99-16.34-10.48-27.77-10.48-12.74,0-23.31,4.83-31.7,14.48"/>
</svg>