<?xml version="1.0" encoding="UTF-8"?>
<svg id="Layer_1" data-name="Layer 1" xmlns="http://www.w3.org/2000/svg" viewBox="0 0 1080 1080">
  <defs>
    <style>
      .cls-1 {
        fill: #fff;
      }
    </style>
  </defs>
  <rect x="140" y="140" width="800" height="800" rx="73.06" ry="73.06"/>
  <g>
    <path class="cls-1" d="M329.7,396.77l96.71-.07-28.23,163.97c-7.49,43.5,70.31,54.62,79.7,0l28.25-164.03,96.71-.07-28.09,163.16c-12.73,73.95-59.63,123.61-142.58,123.69-70.17.07-147.22-26.73-121.93-173.66l19.45-112.99Z"/>
    <path class="cls-1" d="M653.42,586.6c-10.97,12.62-16.45,28.53-16.45,47.72,0,14.55,4.59,26.36,13.77,35.41,9.18,9.06,21.16,13.58,35.94,13.58,16.96,0,30.92-6.19,41.89-18.58,10.97-12.38,16.45-28.1,16.45-47.14,0-15.01-4.63-27.09-13.89-36.23-9.26-9.13-21.35-13.7-36.29-13.7-16.65,0-30.45,6.31-41.42,18.93"/>
  </g>
</svg>